<?xml version="1.0" encoding="utf-8"?>
<!-- Generator: Adobe Illustrator 16.0.4, SVG Export Plug-In . SVG Version: 6.00 Build 0)  -->
<!DOCTYPE svg PUBLIC "-//W3C//DTD SVG 1.1//EN" "http://www.w3.org/Graphics/SVG/1.1/DTD/svg11.dtd">
<svg version="1.1" id="fist" xmlns="http://www.w3.org/2000/svg" xmlns:xlink="http://www.w3.org/1999/xlink" x="0px" y="0px"
	 width="400px" height="400px" viewBox="0 0 400 400" enable-background="new 0 0 400 400" xml:space="preserve">
<path id="fist_1_" fill="#979992" d="M296,169.7l-6.3-1.6l-31.4-7.9l-1.7-0.4l-0.1,0.3l-1.5,6.4l-6.4-1.3l-30.8-6.2l-17.9,4.7
	l25,50.7l-31.6-48.2l-43.7-12.3l-22.6,5.7l11-9.2l-9.9-4.3l61.4-10.9l-17.2-37.9l-82.5,24.7l-4.3,73.5l55.4,49.1l48.2,4l-41.6,5.7
	L139,400h149.6l-10.2-157.5l-31.6-0.2l50.3-16.8l3.2-70.5l-2.5,8.4L296,169.7z M159.4,35.5l-42.6,5l-2.6,67.4L158,94.7L159.4,35.5z
	 M170.4,91l5.3-1.6l2.3,5.1l17.3,37.9l3.4,7.5l-8.1,1.4l-29.2,5.2l-0.4,3.9l14.4,4.1l21.6,3.3l1.5-0.4l8.5-2.2l18.3-121.1L173,25.8
	l-6.4,66.4L170.4,91z M250,158.6l23.6-102.9l-40.5-9.3l-17,105.3L250,158.6z M291.4,161.6l23.2-78.2l-31.9-11.5L260,153.7
	L291.4,161.6z"/>
</svg>
