<?xml version="1.0" encoding="utf-8"?>
<!-- Generator: Adobe Illustrator 16.0.4, SVG Export Plug-In . SVG Version: 6.00 Build 0)  -->
<!DOCTYPE svg PUBLIC "-//W3C//DTD SVG 1.1//EN" "http://www.w3.org/Graphics/SVG/1.1/DTD/svg11.dtd">
<svg version="1.1" id="skull_1_" xmlns="http://www.w3.org/2000/svg" xmlns:xlink="http://www.w3.org/1999/xlink" x="0px" y="0px"
	 width="400px" height="400px" viewBox="0 0 400 400" enable-background="new 0 0 400 400" xml:space="preserve">
<path id="spine" fill="#CC759C" d="M115.5,234.2l-3.4,26.3l53.9,21.3l1.2-23.7L115.5,234.2z M158,307.5V288l-46.4-18.6l-7.3,12.1
	l3,18.6L158,307.5z M111.6,329.4l47.5,0.8l0.5-16.5l-47.8-5.1L111.6,329.4z M104.9,333.4l-0.5,19.4l54,7.8l-0.5-21.6L104.9,333.4z
	 M107.1,365.7l-1.6,28.3l52.6-11.3l-4.6-17.3L107.1,365.7z"/>
<path id="head" fill="#CC759C" d="M348.1,130.9c-0.2-7.7-1.8-14.4-2.4-21.6c-0.4-1.7-0.7-3.3-1.2-4.8c-4.9-18.4-14.4-31.6-26-43
	c-22.5-22.2-55.9-37.1-88.8-47.8c-16.7-5.4-36.9-9.7-59.4-7.7C135,9.1,111,22.3,90.3,39.2c-9.8,8.4-19.4,17.6-27.4,28.1
	c-6,7.8-10.2,19.5-12.3,32.5c-3.8,22.8-1,49.4,10.2,65.7c8.6,14.7,19.8,26.6,32.4,37c25.3,20.6,56.1,35.3,89.8,46.8
	c2.4,13.7,5.7,41.7,6.6,42.2c0.9,0.5,15.9,2.9,15.9,2.9s2.7-13,3.9-12.7c1.3,0.3,1,12.9,1,12.9l14.9,2.5c0,0,2.4-14.5,3.9-14.3
	c1.5,0.2,0.8,15.3,0.8,15.3l14,2.2c0,0,2.4-13.6,4.1-13c1.7,0.6,0.9,13.5,0.9,13.5l15.5,2.1c0,0,2-13.1,3.5-12.7
	c1.5,0.4,0.7,12.5,0.7,12.5l14.3,1.8c0,0,2.7-14.4,3.7-14c1,0.4,1.4,14.6,1.4,14.6l12.9,0.3c0,0,2.1-12.9,3.4-12.7
	c1.3,0.2,1.2,12.5,1.2,12.5s4.3,0.5,5.7-0.4c3.6-7.1,4.2-20.4,2.5-30.8c-0.5-2.7-1.9-6.5-1.5-9c1.7-12.2,6.2-25.2,9.3-37.1
	c0.8-2.9,2.4-7.1,2.3-9.6c-0.2-2.7-2.1-5.6-2.9-8.3c-3.9-14.8-7.6-34.8,5.7-41.6c5.1-2.6,11.7-2.7,15-7.3c4.9-4.8,7.6-11.8,9.4-19.5
	C351.8,138.3,350.9,133.2,348.1,130.9z M309.5,260.2c-7.6-0.2-12.9-7.3-9.4-15c4-8.9,11.8-16,18-22.7c0.1-0.2,0.4-0.2,0.7-0.2
	C316.5,234.9,313.1,248.1,309.5,260.2z M310.6,203.5c0.4,1.4,2.7,4.9,2,6.1c-0.9,1.6-7.5,0.7-9.4,0.5c-17.5-1-33-10-29.5-31.8
	c2.8-17.3,27.8-20,45.5-14.9C309.8,171.4,305.8,187.4,310.6,203.5z"/>
</svg>
