<svg xmlns="http://www.w3.org/2000/svg" x="0px" y="0px" viewBox="0 0 600 600">
  <rect fill="#3C3C3B" width="600" height="600"/>
  <path fill="#FFFFFF" d="M214.5,211.2c0.1-0.7,0.1-1.4,0.2-2.1C218,166.7,214.8,206.8,214.5,211.2z M253.2,324.6
	c1.7-8.1,1.9-16.4,2.9-24.6c2.1-16.7,4.8-33.2,5.9-50c1.7-26.9,5.7-53.7,8.3-80.6c2-20.9,5.1-41.8,5.1-62.8c0-4.3,2.3-7.6,2.6-11.5
	c0.3-3.8,0.6-7.9,0.9-11.7c0.3-3.3,4-18.6-1.8-18.6h-40.4c-1.5,0-4.7-0.4-6.1,0.2c-2.6,1.2-2.4,12.8-2.7,16.3
	c-1.3,11.5-2.6,23.1-3.9,34.7c-3.5,31-6.9,62-9.3,93.1c-0.2,2.5-0.2,3-0.2,2.2c-0.8,10.2-1.8,20.4-2.8,30.6
	c-5.5-31.5-11-63-16.6-94.6c-2.9-16.5-5.8-33-8.7-49.6c-0.6-3.2-0.8-11.1-2.7-13.1c-1.7-1.7-7.4-0.6-9.5-0.9c-2.9-0.5-6.1,0-9,0
	c-3.4-0.1-6.9,0-10.3,0c-5.8,0-5.7,0.3-7,6.2c-1.6,7-2.9,14.1-4.2,21.1c-1.5,8.1-2.1,15.7-2.8,23.9c-0.5,6.6-3.7,12.3-4.9,18.9
	c-3.1,17.5-6,35-8.9,52.5c-1.4,8.3-4.2,17.5-4.2,25.9c0-14.8-2.5-30-3.9-44.8c-0.8-9-0.2-19.3-4.2-27.4c-1.4-2.9-0.2-7.6-0.1-10.7
	c0.7-14.1-1.5-28.2-2.3-42.3c-0.4-7.8-2-14.4-2-22.2c0-6.5-1-20.1-9.6-20.1H72.7c-3.4,0-17.7-2.1-20.2,0.7
	C50.2,68,52.6,75.7,53,79.1c0.5,3.8,0.9,7.5,1.5,11.2c4.1,22.8,6.8,45.8,10,68.7c1.7,12.5,2.6,25,4.4,37.5c2.4,17.7,3.5,35.3,5.5,53
	c1.6,20.5,5,40.9,7.3,61.3c0.5,4.7,1.3,9.5,1.3,14.2c0,1.6-0.3,3.5,0.2,5c2.1,5.7,10.8,3.8,15.7,3.8c6.9,0,13.8-0.4,20.7-0.9
	c6.5-0.1,12.6,1,19.2,0.6c7.1-0.4,6.1-2.7,7.2-8.9c3.4-19.4,6.9-38.7,10.6-58c0.6-3.2,5.9-39.7,9.6-39.7c3.2,4.6,3.4,13.7,4.4,18.9
	c2.5,12.6,4.8,25.3,7.1,37.9c2.3,12.8,4.6,25.6,7.1,38.3c1.2,6.4,1.9,13.9,4.5,19.9c0.7,1.7,12.3,1.6,14.2,1.8
	c3.9,0.3,7.9,0.3,11.8,0.3c6.1,0,12.1,1.3,18.1,0.5c4.4-0.5,10.7-0.5,14.1-3.4C251.1,338.2,252.2,329.4,253.2,324.6z M366.2,343.2
	c6.1,0,21.8,1.7,24.4-4.8c0.8-1.8,0.6-5.5,0.6-7.4v-29.6c0-1.2-0.1-3.8-0.8-5c-1.7-2.8-10.8-1.6-13.6-1.6c-4.4,0-8.8-0.4-13.2-0.4
	c-4.1,0-10,0.9-13.8-0.9c-4.6-2.2-2.8-21.1-2.8-26.2c0-14.8,0.4-29.6,0.4-44.4c0-1.7-0.8-11.7,1.3-12.1c3.2-0.5,6.3-0.4,9.6-0.4
	c6.8,0,19.4,2.1,25.5-1.8c4.6-2.9,2.6-17.3,2.6-21.8v-16.1c0-1.8,0.1-5.3-0.6-7c0-4.4-17.3-2.8-20.1-2.8h-14.9
	c-3.3,0-5.2-0.2-5.2-4.3v-24.4c0-2.3-1.3-21.2,2.6-22.1c7.6-1.8,17.2-0.4,25-0.4c4.5,0,9.1,0.4,13.4-1.1c3.2-1.1,2.2-2.7,2.2-5.5
	V64.4c0-2.8-8-1.9-10.2-1.9c-15.1,0-29.7-0.1-44.8-0.1H306c-3.4,0-7.3-0.7-10.6,0.2c-2.5,0.7-2.4,4.8-2.4,6.8
	c0,17.6-0.2,35.2-0.2,52.7v78.8c0,36.7,0,73.3,0,110v25c0,5.2,3.3,5.8,8,5.8c4.5,0,8.9,1,13.6,0.4c7.5-1,13.9,1.1,21.4,1.1
	L366.2,343.2L366.2,343.2z M541.6,222.1c-0.2-5.3-1.2-10.5-2.4-15.7c-1.1-2.2-1.7-4.7-2.8-7c-0.3-0.6-2-4.1-2.5-4.2
	c-0.6-0.1-1,0.5-1.4-0.3c-1.4-3.6-6.5-5.2-9.9-7.1c-1.5-0.9-7.8-2.9-5.9-5c2.5-2.5,5.8-3.8,8.1-6.6c3.5-4.2,6.1-10.4,6.7-15.9
	c0.9-9.1,2.2-17.9,1.6-27c-1.1-18.3-0.8-38-9-54.9c0-9.8-16.2-19.3-24.1-22c-7.7-2.6-16-1.4-24-1.3c-15.3,0.3-30.9-0.2-46.2,0.8
	c-7.8,0-24-1.9-24.5,8.4c-0.4,7.2,0.2,14.6,0.3,21.9c0.3,15.1,0.5,30.2,0.5,45.4c0,13.6,1.5,29.2,0,42c-1.1,9,0.3,18.5,0.7,27.5
	c0.5,9-1.1,18.3-1.1,27.4c0,9.9-1.4,19.7-1.2,29.5c0.1,7.7,0.7,15.7,0.4,23.2c0.3,19.2-1.2,39.3,1.3,58.4c0.4,3.5,0.9,6.8,4.8,7.2
	c5,0.5,10,0.7,15,0.7c2.6,0,5.2-0.1,7.8-0.2l39-0.8c6.5-0.1,13-0.3,19.5-0.4c7.8-0.2,16-0.5,23.4-3.4c1.7-0.8,3.5-1.1,5.1-2.3
	c2.8-2,3.3-5.1,5.4-7.6c3.9-4.6,6.4-8.7,8.6-14.4c1.8-4.6,2.3-9.5,4.1-14.2c2.9-7.6,2.5-17.4,2.9-25.4c0.4-7.7,0.6-15.5,0.6-23.3
	C542.2,244.7,542.1,233.4,541.6,222.1z M457.8,113c-2-9.4,11.6-6.9,15.9-4.1c5.6,3.6,10.3,11.9,10.3,18.7c0,6.9,0.6,14.2-0.5,21
	c-1,5.6-5.6,15.7-12.3,15.7c-3.9,0-12.9,2.3-13-2.9c-0.1-4-1-8.9-0.3-12.8C460,137.3,458.3,124.5,457.8,113z M491,269.7
	c-1.9,10.8-11.8,26-24.1,26c-2.9,0.3-6-0.8-8.6-1.9c-2.3-1-1.8-2.5-1.8-4.7c-0.1-5.8-0.1-11.6-0.4-17.4c-1-20.8,0.4-42,0.4-62.9
	c7.4,0.5,15.3-0.1,22.5,2c10.1,3.1,11,19.3,12.1,27.6C492.4,248.1,492.7,259.9,491,269.7z M159.2,524.1
	c-4.9-15.4-9.7-31.2-16.6-45.9c4.8-2.1,9.7-5.3,13.1-9.4c3.2-3.8,3.9-9.4,4.8-14.1c1.8-8.7,1.8-17.6,1.8-26.4
	c0-12.7-1.6-26.9-8.9-37.7c-9.2-13.5-23.6-10.2-37.8-10.2c-2.8,0-34.4-3.9-34.7,2.4c-0.4,9.5-0.3,19.3,0.2,28.9
	c1.6,29,0.6,58.5,0.6,87.6v29.6c0,3.5-1.3,8.6,0.7,11.8c1.6,2.6,13.5,0.2,16,0.2c2.5,0,9.5,2.2,11.2-0.4c2.5-3.5,0.9-11.8,0.9-15.7
	c0-14.3-0.5-28.6-0.5-43c0.2,0.4,3.8-0.3,4.5,0.2c1.5,0.9,2,4.7,2.5,6.3c1.2,3.9,4.3,9.5,4.1,13.7c-0.3,5.5,3.1,12.7,4.3,18.2
	c1.1,4.8,2.3,9.3,3.8,14.1c0.6,2,1.1,10.1,3.9,10.1c1.7,0.8,6-0.4,7.8-0.5c5.2-0.3,10.4,0,15.6,0.2c4.7,0.2,11,2,8.5-4.3
	C162.8,534.4,160.9,529.4,159.2,524.1z M132,434.9c0,4.7,0.3,16.1-5.8,16.7c-4.2,0.4-12.2-0.7-15.8,1.6c0-13.5-0.7-27.1-0.7-40.6
	c0.7,1.7,6.5,0.4,8.5,0.5c4.4,0.2,9.2,1.3,11.9,5.1C132.5,422.2,132.8,430.6,132,434.9z M226.9,407.8c3.5-1.4,1.2-19.2,1.2-22.9
	c0-4.1-3.5-3.3-7-3.3h-12.3c-7.9,0-15.9-0.3-23.8-0.3c-2.1,0-8.6-0.9-10.3,0.2c-2.5,0-1.5,7.8-1.5,9.1c0,8.4,0.2,16.8,0.2,25.1
	c0,40.3-0.5,80.6-0.5,120.9c0,4.3,1.9,4.2,5.7,4.8c4.7,0.8,9.1-0.5,13.5,0.8c3.2,1,7.6,0.2,10.9,0.2H217c2.4,0,11-0.1,11-3v-23.4
	c0-2.5-7.1-1.6-8.7-1.6c-4,0-8.4,0.2-12.4-0.3c-5.4-0.6-3.2-18.4-3.1-23.2c0.1-6.9,0.2-13.7,0.2-20.6c0-4.5,1.3-4.2,5.2-4.2
	c4,0,8.2,0.4,12.1-0.1c5-0.6,4.3-3.8,4.3-7.7v-15.8c0-2.7,0.7-3.4-2.9-3.4h-14c-3.5,0-5.3,0.2-5.3-4.1c0-7.3-1.7-17,0.4-24
	C205.5,405.6,221.6,410,226.9,407.8z M302.9,452.6c-4.2-2.3-0.9-2.5,1.6-4.9c7.3-7,5.9-21.6,5.4-30.7c-0.5-8.2-0.4-19.2-4.9-26.4
	c-1.1-1.7-1.2-3.9-2.9-5.4c-2.2-1.9-4.7-3.4-7.1-5c-6.4-4.2-15.2-2.6-22.6-2.5c-7.2,0.1-15.8-1.1-22.9,0.6c-3,0.1-10.9-1.1-12,2.5
	c-0.9,2.9-0.3,6.7-0.2,9.6c0.1,7.8,0.4,15.7,0.4,23.5c0,31,0,61.7-0.7,92.8c0.2,9.8,0.3,19.6,0.5,29.4c0.1,6.2,0.7,8,7.1,8.3
	c3.2,0.2,6.4,0.1,9.7,0l29.3-0.6c10.9-0.2,21.4-0.9,26.2-12.2c5.2-12.4,5.8-25.9,5.8-39.3c0-9.8,1.3-22.2-2.8-31.4
	C310.5,456.4,307.3,455.1,302.9,452.6z M268,407.6c3.6-3.3,9.8,0.9,11.7,4.1c4.1,6.6,3.7,18.8-0.5,25.1c-2,3-4,3-7.1,2.9
	c-3.7,0-4.6,0.5-4.8-3.4c-0.2-6.6,0.1-13.3,0.1-19.9C267.3,414.3,266.2,409.3,268,407.6z M286,500.5c-1.1,6-6.9,14.4-13.7,14.4
	c-8.5,0.3-6-8.1-6.1-14c0-11.9,0.2-23.8,0.2-35.7c4.3,0.3,9.5-0.4,13.6,1.4c5.4,2.4,5.8,11.7,6.3,16.5
	C286.9,488.5,287,495.1,286,500.5z M354.5,517.1c-2.5,0-1-23.1-0.8-26.4c0.1-2.8-0.7-10.3,1.4-11.8c0.9-0.6,3.1-0.2,4.2-0.2
	c3.1,0,7.1,0.3,10.1-0.4c5.1-1.3,2.4-20.3,2.4-24.4c0-4.3-6-2.6-9.5-2.6h-6.5c-2.8,0-1.9-4.3-1.9-6.2c-0.1-10.8-0.7-22.1,0.9-32.7
	c0.6-4.2,0.5-4.4,4.5-4.4h6.5c2.3,0,8.7,0.5,8.7-3.2v-23.4c0-2.4-35.4-1.3-40.2-1.3c-3.2,0-10.1-0.9-10.1,3.9
	c0,7.3-0.5,14.6-0.5,21.9c-0.1,8.3,0,16.7,0,25c0,13.5,0.5,27,0.5,40.7c0,20-1,39.7-1,59.5c0,3.3-0.2,6.3,0,9.6
	c0,5.2,2.3,4.1,6.7,4.1h23c5.5,0,11.7-1.2,17.1-1.2c2.6,0,6.9,1.4,6.9-2v-14.3c0-1.6,0.5-8.6-0.5-9.8
	C376.3,516.5,357,517.1,354.5,517.1z M437.3,515.8c-4.3-0.6-8.9-0.2-13.2-0.2c-4,0-9.4,2-8.9-3.2c0.4-3.4,0.1-6.8,0.1-10.2
	c0.2-15.1,1.5-31.1,0.6-46.1c-0.3-6,0.9-11.6,0.8-17.7c0-6.3-0.1-12.5-0.2-18.8c-0.1-7.9-0.1-15.8-0.1-23.7c0-3.8,0-7.6-0.1-11.4
	c-0.1-3.3-6.7-2.2-9-2c-6.7,0.6-14.2-1.1-20.7,0.2c-3.7,0.8-1.7,21.4-1.7,24.3c0,6.7,0.2,13.3,0.2,20c0,2.2,1.1,3.9,0.5,6.1
	c-0.5,1.9-0.7,3.4-0.8,5.4c-0.2,4.2-0.2,8.4,0.3,12.6c1,8.3-0.2,17.8-0.2,26.2c0,6.6-1.7,15.8,0.2,22c0,6.4-0.3,12.8-0.7,19.2
	c-0.2,3.4-3.1,25.6,1.8,25.6c9.8,0,19.5,0.7,29.3,0.7h16.4c1.6,0,5.3,0.3,6.8-0.5c3.2,0,1.7-15.8,1.6-18.9
	C440.5,521.6,442.1,516.6,437.3,515.8z M492.8,444c-4.8-4.8-10.4-13.4-11.4-20.2c-0.8-5.4,1.2-14,8.2-14c9.3,0,8.6,8.8,8.6,15.6
	c0,6.1-0.5,8.5,5.9,8.7c3.7,0.1,7.4,0.1,11.1,0.1c2.7,0,9.9,1.1,11.9-1.3c2.4-2.8,0.6-11.8,0.5-15.5c-0.1-4.3-0.4-8.5-1.2-12.8
	c-2-12.3-8.5-22.3-21.2-25.5c-14.2-3.6-32.2-2.2-43.3,8.2c-12.6,11.8-16.1,29.8-10.1,45.8c3.6,9.6,10.6,17.9,16.4,26.2
	c2.4,3.4,4.9,6.9,7.5,10.1c2.5,3,6.3,6.4,7.9,9.9c4.4,9.5,16.5,16.5,13.3,28.8c-1.6,6.1-10,9.3-14.8,4.5c-3.7-3-3.9-10.9-3.9-15.3
	c0-2.2,1.3-6.3-1.6-7.1c-2.1-0.6-4.7-0.3-6.8-0.3c-4.5,0-9-0.2-13.5-0.2c-4.6,0-8.1-1.1-8.1,4.3c0,4.2-0.2,8.4,0,12.6
	c0.6,12.1,2.8,24.2,13.2,31.9c11.9,8.8,28.5,8.4,42.3,5.5c12.5-2.6,21.1-12.6,23.7-24.8c3.4-15.7-2.8-31-11.1-44
	C509.4,464.3,499.8,455,492.8,444z"/>
</svg>
