<?xml version="1.0" encoding="UTF-8" standalone="no"?>
<svg viewBox="0 0 632 211" height="100%" width="100%" version="1.1" xmlns="http://www.w3.org/2000/svg" xml:space="preserve">
<!--
  DO WHAT THE FUCK YOU WANT TO PUBLIC LICENSE
  Version 2, December 2004

  Copyright (C) 2013 Web Rebels Conference <kontor@web-rebels.org>

  Everyone is permitted to copy and distribute verbatim or modified
  copies of this license document, and changing it is allowed as long
  as the name is changed.

  DO WHAT THE FUCK YOU WANT TO PUBLIC LICENSE
  TERMS AND CONDITIONS FOR COPYING, DISTRIBUTION AND MODIFICATION

  0. You just DO WHAT THE FUCK YOU WANT TO.
-->
<path d="M133.65,176.8v23.608c39.892-8.353,78.332-20.56,116.59-34.489-38.8,6.24-77.27,10.54-116.59,10.88z" fill="#8A8A4C"/>
<path d="M31.628,18.533c10.514,25.999,21.186,51.929,32.016,77.799-10.5,20.759-21.157,41.426-32.016,62,37.991,10.359,75.274,14.663,114.61,14.633,39.32-1.361,77.841-6.363,116.59-12.994v-139.8c-78,13.332-153.96,19.316-231.2-1.64z" fill="#F2F2EB"/>
<path d="M56.816,19.988c-2.09-5.017-3.135-7.535-5.225-12.586,65.722,17.413,130.58,16.927,197.79,10.047-64.71,10.37-127.8,14.954-192.56,2.539z" fill="#8A8A4C"/>
<g fill="#8A8A4C">
  <path d="M7.224,80.041s12.655-4.293,28.265,0.185c15.609,4.479,20.599,14.54,20.599,14.54s-4.989,8.621-20.599,4.143-28.265-18.868-28.265-18.868z"/>
  <path d="M27.316,120.92s1.523-9.551,8.703-14.683c7.179-5.132,13.771-1.57,13.771-1.57s2,7.146-5.18,12.486c-7.177,5.33-17.294,3.76-17.294,3.76z"/>
  <path d="M27.317,53.298s1.522,10.682,8.702,19.906c7.179,9.227,13.769,8.784,13.769,8.784s2.002-6.033-5.178-15.051c-7.178-9.018-17.293-13.639-17.293-13.639z"/>
</g>
<path d="M600.37,29.132c-112.12-30.545-222.56-2.678-333.76,17.748,0,38.731-0.004,77.462,0,116.19-38.3,14.445-76.786,27.528-116.59,37.197,151.47-6.573,298.7-72.251,450.35-31.339-10.517-25.999-21.183-51.931-32.019-77.796,10.5-20.759,21.16-41.426,32.02-62.002z" fill="#F2F2EB"/>
<path d="M575.18,167.48c2.091,5.018,3.137,7.531,5.228,12.583-132.89-31.302-263.05,13.484-395.59,23.202,130.57-13.34,258.19-60.9,390.36-35.78z" fill="#8A8A4C"/>
<g fill="#8A8A4C">
  <path d="M624.78,107.43s-12.656,4.294-28.264-0.185c-15.611-4.478-20.603-14.543-20.603-14.543s4.991-8.617,20.6-4.139c15.6,4.481,28.26,18.872,28.26,18.872z"/>
  <path d="M604.69,66.55s-1.527,9.552-8.705,14.685c-7.181,5.133-13.769,1.571-13.769,1.571s-2.007-7.146,5.173-12.487c7.18-5.341,17.31-3.769,17.31-3.769z"/>
  <path d="M604.69,134.17s-1.527-10.684-8.705-19.908c-7.181-9.227-13.771-8.783-13.771-8.783s-2.005,6.033,5.175,15.053c7.18,9.02,17.31,13.64,17.31,13.64z"/>
</g>
<g fill="#CACAAE">
  <path d="M600.37,29.132c-35.735-9.735-71.301-13.537-106.77-13.537-71.761,0-143.15,15.557-214.81,29.021v-0.001c-4.058,0.763-8.117,1.52-12.176,2.266,0,38.731-0.004,77.462,0,116.19-38.3,14.445-76.786,27.528-116.59,37.197,1.916-0.083,3.83-0.177,5.744-0.278,0.62-0.033,1.239-0.071,1.859-0.106,1.303-0.073,2.605-0.147,3.907-0.229,0.707-0.045,1.414-0.094,2.121-0.14,1.222-0.081,2.444-0.163,3.666-0.25,0.721-0.052,1.441-0.106,2.162-0.161,1.219-0.091,2.438-0.185,3.657-0.283,0.7-0.057,1.399-0.114,2.099-0.173,1.259-0.105,2.517-0.214,3.775-0.326,0.652-0.058,1.303-0.116,1.955-0.176,1.333-0.123,2.665-0.25,3.997-0.38,0.574-0.056,1.148-0.11,1.721-0.168,1.467-0.146,2.933-0.298,4.398-0.453,0.439-0.046,0.878-0.091,1.316-0.138,1.741-0.188,3.481-0.38,5.221-0.578,0.136-0.016,0.271-0.029,0.407-0.045,0.001,0,0.002-0.001,0.003-0.001,99.336-11.364,197.24-40.788,296.17-40.788,35.232,0,70.57,3.728,106.18,13.334-10.517-25.999-21.183-51.931-32.019-77.796,10.47-20.749,21.13-41.416,31.99-61.992zm-8.41,132.45c-30.735-7.411-62.829-11.023-97.765-11.023-61.57,0-123.63,11.477-183.65,22.576-27.151,5.021-54.783,10.121-82.58,14.209,17.061-5.475,33.971-11.416,50.826-17.659v-119.95c9.035-1.694,18.073-3.424,26.9-5.114,61.598-11.796,125.29-23.993,187.91-23.993,35.632,0,68.208,3.851,99.364,11.759-9.596,18.258-19.372,37.226-29.104,56.471l-1.049,2.075,0.898,2.145c9.34,22.316,18.82,45.316,28.24,68.496z"/>
  <path d="M262.83,43.776v-23.607c-4.016,0.687-8.025,1.348-12.031,1.992-37.317,6.009-74.206,10.101-111.03,10.101-35.995,0-71.927-3.903-108.15-13.729,10.514,25.999,21.186,51.929,32.016,77.799-10.5,20.759-21.157,41.426-32.016,62,37.859,10.323,75.02,14.633,114.21,14.633h0.405c39.32-1.361,77.841-6.363,116.59-12.994v-116.19zm-116.68,124.15l-0.316,0.001c-38,0-73.008-4.207-106.8-12.849,9.539-18.15,19.314-37.12,29.104-56.474l1.049-2.074-0.898-2.145c-9.507-22.724-18.989-45.719-28.235-68.486,31.494,7.663,64.229,11.398,99.724,11.398,32.713,0,68.228-3.199,110.87-10.012v129.6c-39.49,6.41-72.96,9.94-104.49,11.04z"/>
</g>
<path d="M35.488,82.965c11.854,3.402,20.599,11.8,20.599,11.8s-4.989-10.061-20.599-14.54c-15.609-4.478-28.265-0.185-28.265-0.185s16.42-0.472,28.265,2.925z" fill="#CACAAE"/>
<path d="M49.79,104.66s-6.592-3.562-13.771,1.57c-7.18,5.132-8.703,14.683-8.703,14.683s3.908-8.516,8.703-11.942c7.179-5.13,13.771-4.31,13.771-4.31z" fill="#CACAAE"/>
<path d="M44.61,69.678c3.857,4.845,5.056,8.814,5.347,11.464,0.267-1.945,0.266-7.155-5.347-14.204-7.179-9.019-17.293-13.64-17.293-13.64s11.182,8.702,17.293,16.38z" fill="#CACAAE"/>
<path d="M596.51,91.3c11.847,3.398,28.267,16.126,28.267,16.126s-12.66-14.391-28.27-18.87c-15.608-4.479-20.6,4.139-20.6,4.139s8.76-4.797,20.6-1.399z" fill="#CACAAE"/>
<path d="M587.39,73.059c6.1-4.538,17.301-6.509,17.301-6.509s-10.122-1.572-17.301,3.769c-5.594,4.159-5.609,9.401-5.345,11.522,0.29-2.525,1.48-5.911,5.35-8.782z" fill="#CACAAE"/>
<path d="M595.98,114.26c-7.181-9.227-13.771-8.783-13.771-8.783s6.59,2.297,13.771,11.523c4.812,6.186,8.705,17.168,8.705,17.168s-1.52-10.68-8.7-19.91z" fill="#CACAAE"/>
<path d="M138.61,104.97c-0.102,1.209-0.151,1.816-0.253,3.025-0.403,0-0.605-0.001-1.01-0.001-0.15-1.209-0.226-1.814-0.377-3.023-1.932-16.054-3.863-32.106-5.793-48.16-0.127-0.003-9.824-0.255-9.824-0.255-1.93,15.953-3.861,31.904-5.794,47.856-0.151,1.202-0.227,1.803-0.378,3.005-0.403-0.021-0.604-0.031-1.007-0.053-0.102-1.216-0.152-1.824-0.254-3.039-1.806-16.151-3.611-32.3-5.415-48.451-5.038-0.348-7.557-0.56-12.595-1.073,4.149,31.215,8.305,62.43,12.469,93.643,4.232,0.293,6.348,0.411,10.58,0.593,2.102-14.535,4.199-29.071,6.297-43.606,0.302-2.157,0.455-3.239,0.757-5.397,0.202,0.005,0.303,0.009,0.505,0.014,0.303,2.173,0.451,3.26,0.754,5.433,2.1,14.646,4.197,29.291,6.297,43.937,4.232,0.039,6.35,0.032,10.582-0.025,4.162-30.969,8.316-61.938,12.469-92.907-5.038,0.196-7.557,0.264-12.595,0.333-1.82,16.059-3.63,32.11-5.43,48.164z"/>
<path d="M95.907,54.799c5.038,0.514,7.557,0.726,12.595,1.073,1.804,16.151,3.609,32.3,5.415,48.451,0.102,1.215,0.152,1.823,0.254,3.039,0.402,0.021,0.604,0.032,1.007,0.053,0.151-1.202,0.227-1.803,0.378-3.005,1.933-15.952,3.864-31.903,5.794-47.856,0,0,9.697,0.252,9.824,0.255,1.93,16.054,3.861,32.106,5.793,48.16,0.151,1.209,0.227,1.814,0.377,3.023,0.404,0,0.606,0.001,1.01,0.001,0.102-1.209,0.151-1.816,0.253-3.025,1.806-16.053,3.611-32.104,5.415-48.154,5.038-0.069,7.557-0.137,12.595-0.333-4.152,30.969-8.307,61.938-12.469,92.907-2.474,0.033-4.225,0.05-6.098,0.05-1.332,0-2.726-0.008-4.484-0.024-2.1-14.646-4.197-29.291-6.297-43.937-0.303-2.173-0.451-3.26-0.754-5.433-0.202-0.005-0.303-0.009-0.505-0.014-0.302,2.158-0.455,3.24-0.757,5.397-2.098,14.535-4.195,29.071-6.297,43.606-4.232-0.182-6.348-0.3-10.58-0.593-4.17-31.22-8.32-62.436-12.473-93.651m-1.458-1.415l0.21,1.581c4.149,31.215,8.305,62.431,12.469,93.643l0.136,1.02,1.025,0.07c4.248,0.294,6.331,0.411,10.613,0.596l1.138,0.049,0.163-1.127c2.021-13.975,4.037-27.948,6.054-41.923l2.914,20.331,3.148,21.969,0.153,1.07,1.082,0.01c1.763,0.017,3.161,0.025,4.496,0.025,1.766,0,3.423-0.014,6.115-0.051l1.086-0.015,0.145-1.076c4.162-30.969,8.316-61.939,12.469-92.908l0.199-1.484-1.497,0.059c-5.08,0.198-7.545,0.264-12.562,0.332l-1.11,0.016-0.124,1.104-4.942,43.946-0.056,0.499c-1.783-14.82-3.566-29.64-5.348-44.46l-0.131-1.088-1.096-0.021c-0.189-0.004-9.815-0.254-9.815-0.254l-1.146-0.029-0.138,1.137c-1.779,14.706-3.559,29.409-5.34,44.114l-0.139-1.237c-1.623-14.517-3.245-29.03-4.866-43.547l-0.117-1.044-1.048-0.072c-5.145-0.355-7.609-0.566-12.554-1.07l-1.567-0.166z" fill="#CACAAE"/>
<path d="M194.27,67.718c0-5.592-0.002-8.389-0.002-13.981-12.443,1.291-18.667,1.807-31.11,2.447,0,30.859-0.002,61.718,0,92.576,12.443-0.641,18.666-1.154,31.11-2.446v-13.982c-7.002,0.728-10.505,1.045-17.507,1.576v-19.084c0-2.543-0.001-3.813-0.001-6.355,5.039-0.383,7.558-0.601,12.597-1.085v-14.862c-5.039,0.485-7.558,0.702-12.596,1.085v-24.311c7.01-0.547,10.51-0.867,17.51-1.594z"/>
<path d="M194.27,53.737c0,5.593,0.002,8.39,0.002,13.981-7.004,0.727-10.506,1.047-17.509,1.577v24.311c5.038-0.383,7.557-0.6,12.596-1.085v14.862c-5.039,0.484-7.558,0.702-12.597,1.085,0,2.542,0.001,3.812,0.001,6.355v19.084c7.002-0.531,10.505-0.849,17.507-1.576v13.982c-12.444,1.292-18.667,1.806-31.11,2.446-0.002-30.858,0-61.717,0-92.576,12.44-0.631,18.67-1.146,31.11-2.437m1.26-1.398l-1.389,0.145c-12.104,1.256-18.287,1.785-31.045,2.442l-1.194,0.062v32.055c0,20.572-0.001,41.145,0,61.717v1.326l1.324-0.068c12.835-0.661,19.042-1.191,31.175-2.451l1.129-0.117v-16.514l-1.389,0.144c-6.621,0.688-10.049,1.003-16.118,1.47v-22.914c4.28-0.329,6.753-0.546,11.458-0.998l1.139-0.109v-17.391l-1.38,0.133c-4.554,0.439-7.007,0.654-11.215,0.979v-21.784c6.106-0.468,9.558-0.784,16.379-1.491l1.129-0.117v-1.136l-0.001-6.99-0.001-6.991v-1.398z" fill="#CACAAE"/>
<path d="M230.17,92.857c6.549-6.647,8.258-12.066,8.438-20.444,0.341-15.703-9.783-23.091-24.813-20.969-5.103,0.721-11.966,1.469-11.966,1.469,0,30.859,0.001,61.718,0,92.576,6.701-0.769,10.051-1.193,16.752-2.106,14.619-2.229,21.261-15.898,21.035-29.312-0.31-18.077-9.45-21.213-9.45-21.213zm-14.74,37.473v-28.463c2.519-0.334,10.074-2.405,10.074,12.834,0,15.24-7.55,15.29-10.07,15.63zm0-40.937c0-9.874-0.002-14.813-0.002-24.688,2.52-0.335,10.077-1.773,10.077,10.946,0,12.724-7.56,13.407-10.08,13.742z"/>
<path d="M218.67,51.087c12.299,0,20.243,7.388,19.94,21.325-0.181,8.378-1.89,13.797-8.438,20.444,0,0,9.142,3.136,9.446,21.214,0.226,13.413-6.416,27.082-21.035,29.312-6.701,0.913-10.051,1.338-16.752,2.106,0.001-30.858,0-61.717,0-92.576,0,0,6.863-0.748,11.966-1.469,1.68-0.239,3.31-0.358,4.87-0.358m-3.24,38.306c2.519-0.335,10.075-1.019,10.075-13.741,0-9.704-4.398-11.167-7.603-11.167-0.996,0-1.877,0.142-2.475,0.221,0.01,9.874,0.01,14.813,0.01,24.687m0,40.937c2.519-0.333,10.074-0.387,10.074-15.629,0-11.4-4.228-13.113-7.413-13.112-1.072,0-2.027,0.194-2.662,0.278v28.46m3.24-80.502c-1.615,0-3.314,0.124-5.049,0.369-5.023,0.71-11.857,1.456-11.926,1.464l-1.123,0.122v95.118l1.403-0.161c6.598-0.757,9.891-1.171,16.778-2.109,15.605-2.38,22.352-17.073,22.125-30.581-0.24-14.211-5.8-19.659-8.653-21.524,6.142-6.714,7.482-12.528,7.645-20.085,0.154-7.086-1.799-12.909-5.646-16.841-3.71-3.776-9.08-5.772-15.56-5.772zm-1.98,15.985c0.375-0.039,0.784-0.069,1.215-0.069,1.759,0,3.097,0.508,4.09,1.553,1.495,1.574,2.253,4.385,2.253,8.355,0,9.79-4.607,11.716-7.557,12.279l-0.001-10.882,0.01-11.236zm0,37.137c0.431-0.058,0.908-0.106,1.402-0.106,1.522,0,6.153,0,6.153,11.854,0,11.916-4.598,13.722-7.556,14.198v-25.939l0.01-0.001z" fill="#CACAAE"/>
<path d="M330.29,85.074c0.559-13.516-7.984-26.52-23.174-22.205-5.441,1.056-8.162,1.581-13.604,2.623v92.573c5.441-1.04,8.16-1.565,13.602-2.621,0.003-13.016,0-26.03,0-39.046,1.462-0.283,2.19-0.425,3.652-0.709,2.354,12.559,4.702,25.118,7.055,37.677,5.441-1.058,8.162-1.587,13.604-2.638-2.898-14.385-5.794-28.771-8.691-43.156,5.17-4.52,7.2-13.681,7.56-22.486zm-23.17,18.726v-27.46c3.778-0.732,10.074-1.455,10.074,11.771,0,13.229-6.29,14.959-10.07,15.689z"/>
<path d="M312.83,62.027c11.594,0,17.949,11.331,17.465,23.047-0.363,8.806-2.394,17.968-7.557,22.498,2.897,14.386,5.793,28.771,8.691,43.156-5.441,1.051-8.162,1.58-13.604,2.638-2.353-12.559-4.701-25.118-7.055-37.677-1.462,0.284-2.19,0.426-3.652,0.709,0,13.016,0.003,26.03,0,39.046-5.441,1.056-8.16,1.581-13.602,2.621v-92.573c5.441-1.042,8.162-1.567,13.604-2.623,2.01-0.58,3.92-0.847,5.7-0.847m-5.71,41.773c3.778-0.732,10.074-2.463,10.074-15.688,0-10.204-3.747-12.105-7.194-12.105-1.021,0-2.017,0.167-2.88,0.334v27.459m5.71-43.033c-1.921,0-3.94,0.295-6.001,0.876-5.405,1.048-8.126,1.573-13.548,2.611l-1.022,0.196v95.137l1.496-0.286c5.443-1.041,8.162-1.566,13.605-2.622l1.02-0.197v-1.038c0.002-8.678,0.001-17.354,0.001-26.031v-11.978l1.388-0.269,3.65,19.491,3.171,16.938,0.233,1.247,1.245-0.242,0.981-0.19c4.807-0.935,7.517-1.462,12.62-2.446l1.247-0.241-0.251-1.244-5.258-26.109-3.294-16.355c5.874-5.724,7.187-16.726,7.441-22.89,0.309-7.468-2.088-14.614-6.409-19.118-3.29-3.412-7.54-5.225-12.31-5.225zm-4.45,16.637c0.528-0.079,1.072-0.133,1.621-0.134,1.73,0,2.969,0.554,3.897,1.742,1.352,1.731,2.038,4.794,2.038,9.104,0,10.88-4.327,13.275-7.556,14.124v-24.836z" fill="#CACAAE"/>
<path d="M352.58,107.28c5.038-0.938,7.557-1.4,12.595-2.306v-14.864c-5.038,0.905-7.557,1.369-12.595,2.308v-24.31c7.003-1.304,10.504-1.945,17.507-3.181v-13.979c-12.444,2.197-18.668,3.37-31.112,5.749,0,30.859-0.003,61.718,0,92.576,12.444-2.379,18.668-3.555,31.112-5.751,0-5.593,0.003-8.39,0.003-13.982-7.003,1.236-10.507,1.877-17.51,3.181v-25.44z"/>
<path d="M370.09,50.952v13.979c-7.003,1.235-10.504,1.877-17.507,3.181v24.31c5.038-0.938,7.557-1.402,12.595-2.308v14.864c-5.038,0.905-7.557,1.367-12.595,2.306v25.44c7.003-1.304,10.507-1.944,17.51-3.181,0,5.593-0.003,8.39-0.003,13.982-12.444,2.196-18.668,3.372-31.112,5.751-0.003-30.858,0-61.717,0-92.576,12.44-2.382,18.67-3.555,31.11-5.752m1.26-1.501l-1.479,0.261c-12.346,2.18-18.654,3.367-31.13,5.752l-1.023,0.196v31.9c-0.001,20.572-0.002,41.145,0,61.717v1.523l1.496-0.286c12.851-2.457,18.86-3.589,31.095-5.748l1.041-0.184v-1.057l0.001-6.991,0.002-6.991v-1.501l-1.479,0.261c-6.474,1.143-9.968,1.778-16.031,2.906v-22.879c4.247-0.79,6.752-1.25,11.558-2.113l1.037-0.187v-17.425l-1.482,0.266c-4.482,0.806-6.982,1.264-11.112,2.032v-21.747c6.466-1.202,9.976-1.843,16.466-2.987l1.041-0.184v-16.537h-0.02z" fill="#CACAAE"/>
<path d="M405.99,88.842c6.548-6.617,8.26-11.943,8.435-20.329,0.327-15.633-9.675-23.449-24.813-20.867-5.109,0.87-11.965,1.991-11.965,1.991v92.575c6.701-1.146,10.052-1.702,16.752-2.753,14.521-2.395,21.269-15.812,21.037-29.263-0.31-18.075-9.44-21.358-9.44-21.358zm-14.74,37.638v-28.467c2.52-0.402,10.074-2.567,10.074,12.671,0.01,15.25-7.55,15.4-10.07,15.8zm0-40.933v-24.687c2.52-0.402,10.074-1.938,10.074,10.781,0.01,12.724-7.55,13.504-10.07,13.906z"/>
<path d="M395.08,47.16c12.024,0,19.628,7.693,19.342,21.354-0.175,8.386-1.887,13.712-8.435,20.329,0,0,9.133,3.283,9.445,21.354,0.231,13.45-6.516,26.868-21.037,29.263-6.7,1.051-10.051,1.606-16.752,2.753v-92.575s6.855-1.121,11.965-1.991c1.92-0.324,3.75-0.484,5.48-0.484m-3.83,38.387c2.52-0.402,10.074-1.183,10.074-13.905,0-9.522-4.234-11.056-7.42-11.056-1.069,0-2.021,0.173-2.654,0.274v24.687m0,40.933c2.52-0.402,10.074-0.554,10.074-15.796,0-11.223-4.097-13.006-7.263-13.005-1.133,0-2.147,0.229-2.812,0.334v28.471m3.83-80.579c-1.812,0-3.724,0.169-5.684,0.503-5.047,0.86-11.888,1.979-11.956,1.99l-1.057,0.173v95.138l1.473-0.252c6.615-1.132,9.961-1.688,16.734-2.75,15.589-2.57,22.331-17.185,22.102-30.528-0.246-14.232-5.821-19.754-8.661-21.648,6.187-6.705,7.489-12.295,7.649-19.987,0.15-7.165-1.825-13.051-5.713-17.021-3.59-3.671-8.74-5.613-14.88-5.613zm-2.57,16.042c0.426-0.054,0.9-0.097,1.395-0.097,1.711,0,3.013,0.508,3.98,1.553,1.446,1.562,2.18,4.336,2.18,8.243,0,9.763-4.616,11.779-7.555,12.408v-22.107h0.01zm0,37.137c0.474-0.074,1.002-0.138,1.552-0.138,1.662,0,2.876,0.573,3.82,1.803,1.448,1.886,2.183,5.231,2.183,9.943,0,11.892-4.603,13.788-7.555,14.331v-25.93h0.01z" fill="#CACAAE"/>
<path d="M423.49,135.36c12.445-1.54,18.669-2.198,31.113-3.155,0-5.593-0.003-8.39-0.003-13.982-7.003,0.539-10.504,0.864-17.507,1.597v-25.44c5.038-0.527,7.562-0.768,12.6-1.196v-14.864c-5.038,0.428-7.562,0.669-12.6,1.195v-24.309c7.003-0.733,10.507-1.056,17.51-1.594v-13.979c-12.444,0.956-18.668,1.61-31.113,3.15v92.577z"/>
<path d="M454.6,39.629v13.979c-7.003,0.538-10.507,0.86-17.51,1.594v24.309c5.038-0.526,7.562-0.768,12.6-1.195v14.864c-5.038,0.429-7.562,0.669-12.6,1.196v25.44c7.003-0.732,10.504-1.058,17.507-1.597,0,5.593,0.003,8.39,0.003,13.982-12.444,0.957-18.668,1.615-31.113,3.155v-92.578c12.45-1.542,18.67-2.197,31.11-3.153m1.26-1.36l-1.356,0.104c-12.785,0.982-18.996,1.65-31.171,3.156l-1.105,0.137v95.116l1.414-0.175c12.186-1.508,18.382-2.175,31.056-3.149l1.163-0.089v-1.167l-0.002-6.991-0.001-6.991v-1.36l-1.356,0.104c-6.4,0.493-9.825,0.8-16.15,1.455v-22.889c4.325-0.449,6.787-0.68,11.446-1.076l1.153-0.099v-17.391l-1.366,0.116c-4.513,0.384-6.971,0.612-11.233,1.053v-21.777c6.396-0.664,9.818-0.971,16.347-1.473l1.163-0.09v-16.505h0.01z" fill="#CACAAE"/>
<path d="M475.76,38.402c-5.441,0.209-8.162,0.349-13.604,0.695v92.577c12.646-0.806,18.969-1.047,31.615-1.061v-12.593c-7.205,0.008-10.807,0.084-18.012,0.359-0.01-26.66-0.01-53.318-0.01-79.978z"/>
<path d="M475.76,38.402v79.979c7.205-0.275,10.807-0.352,18.012-0.359v12.593c-12.646,0.014-18.969,0.255-31.615,1.061v-92.577c5.44-0.343,8.16-0.482,13.6-0.691m1.26-1.309l-1.309,0.05c-5.441,0.209-8.117,0.346-13.635,0.697l-1.18,0.075v95.101l1.34-0.085c12.268-0.781,18.545-1.044,31.536-1.059l1.259-0.001v-15.112l-1.261,0.002c-6.694,0.007-10.228,0.069-16.751,0.311v-79.967h-0.01z" fill="#CACAAE"/>
<path d="M516.44,50.059c4.457,0.148,5.416,7.495,5.416,13.667,5.341-0.157,8.013-0.194,13.353-0.166,0.377-12.075-4.89-25.629-19.02-25.982-12.774-0.321-17.758,11.061-17.758,21.137,0,9.95,6.146,19.467,12.469,29.135,5.181,7.924,10.956,15.804,10.956,21.976,0,5.793-1.513,10.086-5.542,9.881-5.667-0.289-6.423-8.341-6.423-16.023-5.34,0.314-8.009,0.515-13.35,0.992-0.774,13.009,4.609,27.201,19.772,27.498,14.41,0.281,18.895-9.539,18.895-21.883,0-9.95-6.4-19.896-12.723-29.646-5.195-8.016-10.705-15.304-10.705-21.602-0.02-5.301,1.18-9.109,4.64-8.993z"/>
<path d="M515.66,37.571c0.173,0,0.35,0.002,0.525,0.007,14.13,0.354,19.396,13.907,19.02,25.982-1.072-0.006-2.036-0.009-2.936-0.009-3.584,0-6.148,0.049-10.417,0.175,0-6.172-0.959-13.519-5.416-13.667-0.052-0.002-0.102-0.003-0.152-0.003-3.344,0-4.507,3.773-4.507,8.986,0,6.298,5.51,13.586,10.705,21.602,6.322,9.75,12.723,19.695,12.723,29.646,0,12.172-4.358,21.889-18.294,21.889-0.198,0-0.399-0.002-0.601-0.006-15.163-0.297-20.547-14.489-19.772-27.498,5.341-0.478,8.01-0.678,13.35-0.992,0,7.683,0.756,15.734,6.423,16.023,0.093,0.005,0.184,0.007,0.273,0.007,3.824,0,5.269-4.228,5.269-9.888,0-6.172-5.775-14.052-10.956-21.976-6.322-9.668-12.469-19.185-12.469-29.135,0.03-9.931,4.87-21.139,17.26-21.138m0-1.26c-6.055,0-11,2.557-14.302,7.395-2.702,3.96-4.19,9.29-4.19,15.009,0,10.442,6.443,20.296,12.675,29.824,0.614,0.94,1.237,1.88,1.858,2.815,4.371,6.593,8.892,13.409,8.892,18.471,0,3.937-0.695,8.628-4.009,8.628-0.068,0-0.139-0.002-0.21-0.005-3.614-0.185-5.227-4.738-5.227-14.766v-1.336l-1.334,0.079c-5.316,0.312-7.944,0.508-13.388,0.994l-1.08,0.097-0.064,1.083c-0.551,9.242,1.883,17.518,6.675,22.704,3.651,3.952,8.473,6.014,14.33,6.128,0.21,0.004,0.419,0.007,0.625,0.007,12.792,0,19.554-8.005,19.554-23.148,0-10.397-6.571-20.53-12.926-30.33-0.733-1.133-1.475-2.251-2.205-3.354-4.267-6.444-8.297-12.531-8.297-17.562,0-5.127,1.093-7.727,3.247-7.727l0.11,0.002c2.668,0.089,4.198,4.611,4.198,12.408v1.298l1.297-0.039c4.466-0.132,6.988-0.174,10.38-0.174,0.897,0,1.859,0.003,2.929,0.009l1.228,0.007,0.038-1.228c0.273-8.768-2.234-16.616-6.882-21.533-3.478-3.679-7.975-5.612-13.365-5.748-0.21,0.015-0.4,0.012-0.58,0.012z" fill="#CACAAE"/>
</svg>