<?xml version="1.0" encoding="UTF-8" standalone="no"?>
<svg viewBox="0 0 286.25 92.5" height="100%" width="100%" version="1.1" xmlns="http://www.w3.org/2000/svg" xml:space="preserve">
<!--
  DO WHAT THE FUCK YOU WANT TO PUBLIC LICENSE
  Version 2, December 2004

  Copyright (C) 2013 Web Rebels Conference <kontor@web-rebels.org>

  Everyone is permitted to copy and distribute verbatim or modified
  copies of this license document, and changing it is allowed as long
  as the name is changed.

  DO WHAT THE FUCK YOU WANT TO PUBLIC LICENSE
  TERMS AND CONDITIONS FOR COPYING, DISTRIBUTION AND MODIFICATION

  0. You just DO WHAT THE FUCK YOU WANT TO.
-->
<path d="M177.99,25.975v11.331c1.157-0.185,4.624-0.543,4.624-6.383,0-5.839-3.47-5.134-4.62-4.948z"/>
<path d="M139.37,33.082v12.604c1.734-0.336,4.624-1.13,4.624-7.2,0-6.072-2.89-5.741-4.62-5.404z"/>
<path d="M177.99,43.029v13.066c1.157-0.185,4.624-0.254,4.624-7.25,0-6.994-3.47-6-4.62-5.816z"/>
<path d="M273.98,11.41c-51.465-14.021-102.16-1.229-153.2,8.146,0,17.778-0.002,35.557,0,53.335-17.58,6.631-35.246,12.635-53.518,17.074,69.527-3.018,137.11-33.165,206.72-14.386-4.828-11.934-9.723-23.836-14.697-35.709,4.82-9.528,9.71-19.016,14.7-28.46zm-129.7,57.025c-1.08-5.764-2.157-11.529-3.238-17.293-0.671,0.13-1.005,0.195-1.676,0.324,0,5.975,0.001,11.949,0,17.923-2.498,0.485-3.746,0.726-6.244,1.203v-42.492c2.498-0.479,3.747-0.72,6.245-1.204,6.972-1.979,10.894,3.989,10.637,10.192-0.167,4.042-1.099,8.248-3.469,10.327,1.33,6.603,2.659,13.207,3.989,19.81-2.49,0.482-3.74,0.724-6.24,1.21zm23.99-4.517c-5.713,1.009-8.569,1.549-14.281,2.641-0.002-14.164,0-28.329,0-42.494,5.712-1.092,8.568-1.63,14.281-2.639v6.417c-3.215,0.566-4.822,0.861-8.036,1.46v11.158c2.312-0.431,3.469-0.644,5.781-1.06v6.823c-2.312,0.415-3.469,0.628-5.781,1.058v11.679c3.214-0.6,4.823-0.893,8.037-1.461,0.01,2.567,0,3.853,0,6.418zm11.16-1.865c-3.076,0.481-4.614,0.736-7.69,1.263v-42.493s3.146-0.515,5.492-0.914c6.949-1.185,11.54,2.403,11.39,9.578-0.08,3.85-0.866,6.294-3.872,9.332,0,0,4.192,1.506,4.337,9.802,0.1,6.172-2.99,12.331-9.66,13.432zm27.63-39.407c-3.215,0.247-4.823,0.395-8.038,0.731v11.158c2.313-0.241,3.472-0.353,5.784-0.549v6.822c-2.312,0.197-3.47,0.308-5.784,0.55v11.677c3.215-0.336,4.823-0.484,8.038-0.732v6.419c-5.712,0.438-8.569,0.74-14.281,1.447v-42.494c5.712-0.707,8.568-1.007,14.281-1.446v6.417zm17.98,35.345c-5.805,0.007-8.707,0.117-14.512,0.487v-42.494c2.498-0.159,3.746-0.224,6.244-0.319v36.712c3.307-0.127,4.961-0.162,8.268-0.165v5.779zm19.02-30.777c-2.449-0.014-3.678,0.003-6.129,0.076,0-2.833-0.439-6.206-2.486-6.274-1.588-0.053-2.137,1.695-2.137,4.124,0,2.891,2.527,6.236,4.912,9.915,2.902,4.476,5.84,9.041,5.84,13.608,0,5.665-2.059,10.173-8.672,10.044-6.961-0.136-9.432-6.65-9.076-12.622,2.451-0.219,3.678-0.312,6.127-0.455,0,3.527,0.348,7.222,2.949,7.355,1.85,0.094,2.543-1.877,2.543-4.536,0-2.833-2.65-6.45-5.029-10.087-2.9-4.438-5.723-8.807-5.723-13.374,0-4.624,2.287-9.849,8.15-9.701,6.5,0.162,8.92,6.383,8.74,11.927z"/>
<path d="M97.282,44.795v13.065c1.156-0.153,4.625-0.178,4.625-7.175,0-6.994-3.472-6.043-4.628-5.89z"/>
<path d="M97.281,27.739c0,4.532,0.001,6.799,0.001,11.332,1.156-0.153,4.625-0.468,4.625-6.308,0-5.838-3.472-5.178-4.629-5.024z"/>
<path d="M12.915,6.545c4.825,11.934,9.725,23.836,14.695,35.711-4.819,9.528-9.711,19.015-14.695,28.458,17.438,4.756,34.552,6.73,52.608,6.718,18.049-0.625,35.73-2.922,53.518-5.965v-53.335-10.836c-35.804,6.122-70.668,8.868-106.12-0.751zm51.647,60.063c-1.942,0.027-2.914,0.031-4.856,0.013-0.964-6.722-1.927-13.445-2.891-20.168-0.139-0.997-0.207-1.496-0.347-2.493-0.092-0.002-0.139-0.004-0.231-0.006-0.139,0.99-0.209,1.486-0.348,2.478-0.962,6.671-1.926,13.343-2.891,20.016-1.942-0.084-2.913-0.138-4.855-0.272-1.911-14.327-3.819-28.655-5.724-42.982,2.312,0.235,3.469,0.332,5.781,0.492,0.828,7.414,1.656,14.825,2.485,22.239,0.047,0.558,0.07,0.837,0.116,1.396,0.185,0.01,0.277,0.015,0.463,0.023,0.069-0.552,0.104-0.827,0.173-1.379,0.888-7.322,1.774-14.644,2.66-21.967,0,0,4.451,0.116,4.509,0.117,0.886,7.369,1.773,14.737,2.659,22.106,0.069,0.555,0.104,0.832,0.173,1.388,0.186,0,0.278,0.001,0.464,0.001,0.047-0.556,0.069-0.835,0.116-1.39,0.829-7.368,1.657-14.735,2.485-22.104,2.312-0.031,3.469-0.062,5.781-0.152-1.905,14.215-3.812,28.431-5.722,42.644zm20.754-26.101v6.821c-2.312,0.223-3.469,0.323-5.782,0.499,0,1.166,0.001,1.75,0.001,2.917v8.76c3.214-0.244,4.821-0.39,8.035-0.724v6.418c-5.712,0.593-8.568,0.828-14.279,1.122-0.001-14.164,0-28.328,0-42.492,5.711-0.295,8.568-0.531,14.279-1.124,0,2.567,0.001,3.851,0.001,6.418-3.215,0.333-4.822,0.48-8.036,0.724v11.158c2.312-0.175,3.468-0.275,5.781-0.497zm13.411,23.346c-3.075,0.419-4.613,0.613-7.689,0.967,0.001-14.164,0-28.328,0-42.493,0,0,3.15-0.344,5.493-0.674,6.898-0.975,11.546,2.416,11.39,9.624-0.083,3.846-0.868,6.333-3.873,9.384,0,0,4.195,1.44,4.336,9.737,0.1,6.157-2.95,12.431-9.663,13.455z"/>
<path d="M59.742,79.192v10.837c18.311-3.833,35.956-9.437,53.518-15.831-17.809,2.864-35.468,4.835-53.518,4.994z"/>
<path d="M24.476,7.213c-0.959-2.303-1.438-3.458-2.397-5.777,30.167,7.993,59.936,7.77,90.789,4.612-29.708,4.76-58.666,6.864-88.394,1.165z"/>
<path d="M1.712,34.777s5.81-1.97,12.975,0.085c7.164,2.057,9.454,6.675,9.454,6.675s-2.29,3.956-9.454,1.901c-7.165-2.055-12.975-8.661-12.975-8.661z"/>
<path d="M10.936,53.54s0.698-4.384,3.994-6.739c3.295-2.356,6.32-0.722,6.32-0.722s0.919,3.28-2.377,5.732c-3.294,2.451-7.937,1.729-7.937,1.729z"/>
<path d="M10.936,22.503s0.698,4.903,3.994,9.138c3.295,4.234,6.32,4.031,6.32,4.031s0.919-2.77-2.377-6.908c-3.294-4.14-7.937-6.261-7.937-6.261z"/>
<path d="M262.41,74.913c0.959,2.304,1.439,3.458,2.398,5.776-60.996-14.368-120.74,6.189-181.58,10.65,59.94-6.127,118.51-27.956,179.18-16.426z"/>
<path d="M285.18,47.348s-5.811,1.972-12.975-0.084c-7.166-2.056-9.457-6.675-9.457-6.675s2.291-3.956,9.457-1.9c7.17,2.055,12.98,8.659,12.98,8.659z"/>
<path d="M275.96,28.586s-0.701,4.384-3.996,6.74c-3.295,2.355-6.318,0.722-6.318,0.722s-0.922-3.28,2.373-5.732c3.3-2.452,7.95-1.73,7.95-1.73z"/>
<path d="M275.96,59.624s-0.701-4.903-3.996-9.139c-3.295-4.234-6.32-4.031-6.32-4.031s-0.92,2.769,2.375,6.909c3.29,4.139,7.94,6.261,7.94,6.261z"/>
</svg>