<?xml version="1.0" encoding="UTF-8" standalone="no"?>
<svg viewBox="0 0 419 150" height="100%" width="100%" version="1.1" xmlns="http://www.w3.org/2000/svg" xml:space="preserve">
<!--
  DO WHAT THE FUCK YOU WANT TO PUBLIC LICENSE
  Version 2, December 2004

  Copyright (C) 2013 Web Rebels Conference <kontor@web-rebels.org>

  Everyone is permitted to copy and distribute verbatim or modified
  copies of this license document, and changing it is allowed as long
  as the name is changed.

  DO WHAT THE FUCK YOU WANT TO PUBLIC LICENSE
  TERMS AND CONDITIONS FOR COPYING, DISTRIBUTION AND MODIFICATION

  0. You just DO WHAT THE FUCK YOU WANT TO.
-->
<path d="M416.04,83.09l-9.041-10.276c-0.711-0.808-5.602-6.214-12.756-10.427,1.771-3.399,2.361-6.439,2.506-7.35l1.449-9.056-9.062-1.408c-0.166-0.026-0.547-0.079-1.08-0.128,1.703-3.263,3.402-6.504,5.088-9.701l5.316-10.075-10.99-2.994c-21.445-5.842-43.803-8.682-68.35-8.682-39.84,0-79.765,7.646-118.38,15.038-5.008,0.959-10.018,1.917-15.03,2.86v-16.762l-10.665,1.82c-2.44,0.416-4.874,0.818-7.311,1.209l-0.39-2.972c-17.759,1.817-33.426,2.701-47.896,2.701-25.809,0-49.035-2.829-71.006-8.65l-17.826-4.722,4.712,11.385-16.913-4.588,6.893,17.048c0.884,2.187,1.781,4.387,2.673,6.583l-8.268-3.778,2.358,16.535c0.06,0.423,0.377,2.403,1.25,5.127-4.154,0.373-6.929,1.244-7.555,1.456l-12.963,4.396,9.041,10.278c0.71,0.808,5.603,6.214,12.756,10.427-1.771,3.399-2.36,6.439-2.505,7.351l-1.444,9.051,9.057,1.408c0.167,0.026,0.546,0.079,1.078,0.129-1.705,3.268-3.404,6.511-5.087,9.701l-5.315,10.073,10.988,2.996c18.075,4.928,36.622,7.866,56.285,8.914v18.451c9.5,0.5,40.479-2.61,41.111-2.671l0.294,3.354c26.295-1.928,52.662-6.093,78.161-10.12,34.066-5.382,69.292-10.946,103.7-10.946,21.564,0,41.1,2.132,59.721,6.519l17.342,4.085-4.475-10.812,16.904,4.562-6.885-17.021c-0.889-2.199-1.781-4.392-2.674-6.587l8.279,3.78-2.365-16.533c-0.061-0.423-0.377-2.401-1.25-5.123,4.154-0.374,6.93-1.246,7.557-1.457l12.95-4.377z"/>
<path d="M96.797,121.69v14.581c24.639-5.158,48.382-12.698,72.015-21.301-23.96,3.86-47.72,6.51-72.013,6.72z" fill="#8B8B4C"/>
<path d="M33.784,23.938c6.494,16.058,13.086,32.074,19.775,48.053-6.485,12.822-13.068,25.585-19.775,38.294,23.466,6.398,46.494,9.057,70.792,9.038,24.286-0.839,48.079-3.931,72.014-8.025v-71.768-14.582c-48.18,8.235-95.093,11.931-142.81-1.012z" fill="#F2F2EB"/>
<path d="M49.343,24.836c-1.292-3.099-1.936-4.653-3.228-7.773,40.594,10.755,80.652,10.455,122.17,6.206-39.97,6.404-78.936,9.235-118.94,1.567z" fill="#8B8B4C"/>
<g fill="#8B8B4C">
  <path d="M18.71,61.928s7.817-2.651,17.459,0.114c9.641,2.767,12.722,8.981,12.722,8.981s-3.082,5.324-12.722,2.559c-9.641-2.767-17.459-11.654-17.459-11.654z"/>
  <path d="M31.122,87.173s0.941-5.899,5.375-9.067c4.434-3.17,8.505-0.971,8.505-0.971s1.235,4.414-3.2,7.713c-4.431,3.298-10.68,2.325-10.68,2.325z"/>
  <path d="M31.122,45.411s0.941,6.598,5.375,12.295c4.434,5.699,8.503,5.426,8.503,5.426s1.237-3.727-3.198-9.296c-4.432-5.57-10.68-8.425-10.68-8.425z"/>
</g>
<path d="M385.07,30.484c-69.252-18.866-137.47-1.655-206.15,10.962,0,23.923-0.003,47.845,0,71.769-23.657,8.923-47.428,17.003-72.015,22.975,93.558-4.061,184.5-44.627,278.16-19.357-6.496-16.058-13.084-32.074-19.775-48.051,6.5-12.831,13.09-25.596,19.79-38.305z" fill="#F2F2EB"/>
<path d="M369.52,115.94c1.291,3.098,1.938,4.651,3.229,7.771-82.08-19.334-162.48,8.328-244.34,14.33,80.64-8.25,159.47-37.62,241.11-22.1z" fill="#8B8B4C"/>
<g fill="#8B8B4C">
  <path d="M400.15,78.844s-7.818,2.652-17.459-0.114c-9.643-2.766-12.727-8.983-12.727-8.983s3.084-5.322,12.725-2.556c9.65,2.765,17.47,11.653,17.47,11.653z"/>
  <path d="M387.74,53.596s-0.943,5.9-5.377,9.07c-4.436,3.171-8.506,0.971-8.506,0.971s-1.238-4.415,3.195-7.713c4.45-3.299,10.7-2.328,10.7-2.328z"/>
  <path d="M387.74,95.361s-0.943-6.598-5.377-12.296c-4.436-5.7-8.506-5.425-8.506-5.425s-1.238,3.726,3.195,9.296c4.45,5.571,10.7,8.425,10.7,8.425z"/>
</g>
<g fill="#C9C9AE">
  <path d="M385.07,30.484c-22.072-6.013-44.037-8.361-65.949-8.361-44.324,0-88.416,9.608-132.68,17.924-2.506,0.471-5.014,0.938-7.52,1.399,0,23.923-0.003,47.845,0,71.769-23.657,8.923-47.428,17.003-72.015,22.975,1.183-0.052,2.365-0.109,3.548-0.172,0.383-0.021,0.765-0.045,1.147-0.065,0.806-0.047,1.61-0.093,2.414-0.141,0.437-0.029,0.874-0.059,1.31-0.087,0.755-0.051,1.51-0.102,2.264-0.154,0.446-0.033,0.891-0.065,1.335-0.1,0.753-0.057,1.506-0.115,2.259-0.176,0.433-0.034,0.864-0.069,1.296-0.106,0.777-0.065,1.555-0.132,2.332-0.201,0.402-0.035,0.805-0.072,1.208-0.108,0.823-0.077,1.646-0.154,2.468-0.234,0.354-0.034,0.709-0.068,1.063-0.104,0.906-0.091,1.812-0.185,2.717-0.28,0.271-0.028,0.542-0.055,0.813-0.085,1.075-0.116,2.15-0.235,3.225-0.356,0.083-0.011,0.167-0.018,0.251-0.028h0.002c61.355-7.02,121.83-25.194,182.93-25.194,21.762,0,43.59,2.304,65.582,8.236-6.496-16.058-13.084-32.074-19.775-48.051,6.5-12.831,13.09-25.596,19.79-38.305zm-5.19,81.816c-18.984-4.578-38.807-6.811-60.387-6.811-38.029,0-76.363,7.089-113.44,13.945-16.77,3.1-33.837,6.252-51.006,8.776,10.538-3.38,20.983-7.053,31.394-10.908v-74.097c5.581-1.047,11.164-2.115,16.615-3.16,38.047-7.285,77.389-14.819,116.06-14.819,22.008,0,42.129,2.378,61.373,7.263-5.926,11.278-11.965,22.993-17.977,34.88l-0.648,1.281,0.557,1.325c5.8,13.785,11.66,27.992,17.48,42.317z"/>
  <path d="M176.59,39.53v-14.582c-2.48,0.423-4.956,0.832-7.431,1.23-23.049,3.711-45.834,6.238-68.577,6.238-22.233,0-44.427-2.41-66.798-8.479,6.494,16.058,13.086,32.074,19.775,48.053-6.485,12.822-13.068,25.585-19.775,38.294,23.385,6.377,46.337,9.038,70.541,9.038h0.251c24.286-0.839,48.079-3.931,72.014-8.025,0.01-23.926,0.01-47.848,0.01-71.77zm-72.07,76.68h-0.196c-23.47,0-45.094-2.599-65.965-7.936,5.892-11.21,11.93-22.927,17.976-34.88l0.648-1.281-0.555-1.325c-5.876-14.035-11.732-28.237-17.443-42.3,19.452,4.733,39.67,7.04,61.596,7.04,20.205,0,42.141-1.976,68.48-6.184v80.052c-24.39,3.97-45.06,6.14-64.54,6.82z"/>
</g>
<path d="M36.169,63.734c7.321,2.102,12.722,7.289,12.722,7.289s-3.082-6.215-12.722-8.981c-9.642-2.765-17.459-0.114-17.459-0.114s10.142-0.291,17.459,1.806z" fill="#C9C9AE"/>
<path d="M45.003,77.135s-4.072-2.199-8.505,0.971c-4.435,3.168-5.375,9.067-5.375,9.067s2.414-5.258,5.375-7.374c4.433-3.171,8.505-2.664,8.505-2.664z" fill="#C9C9AE"/>
<path d="M41.803,55.528c2.382,2.992,3.123,5.444,3.303,7.081,0.164-1.202,0.164-4.42-3.303-8.773-4.434-5.57-10.681-8.425-10.681-8.425s6.906,5.375,10.681,10.117z" fill="#C9C9AE"/>
<path d="M382.69,68.883c7.316,2.1,17.461,9.961,17.461,9.961s-7.818-8.888-17.461-11.653c-9.641-2.766-12.725,2.556-12.725,2.556s5.42-2.963,12.73-0.864z" fill="#C9C9AE"/>
<path d="M377.05,57.616c3.77-2.803,10.688-4.02,10.688-4.02s-6.252-0.971-10.688,2.328c-3.453,2.57-3.463,5.807-3.299,7.117,0.18-1.56,0.92-3.652,3.3-5.425z" fill="#C9C9AE"/>
<path d="M382.36,83.065c-4.436-5.7-8.506-5.425-8.506-5.425s4.07,1.418,8.506,7.117c2.973,3.82,5.377,10.604,5.377,10.604s-0.94-6.598-5.38-12.296z" fill="#C9C9AE"/>
<path d="M99.86,77.325c-0.062,0.747-0.093,1.122-0.156,1.868h-0.624c-0.093-0.747-0.14-1.121-0.233-1.867-1.193-9.916-2.386-19.831-3.578-29.747-0.079-0.001-6.068-0.157-6.068-0.157-1.192,9.854-2.386,19.705-3.579,29.559-0.093,0.742-0.14,1.113-0.234,1.855-0.25-0.011-0.373-0.018-0.622-0.033-0.062-0.75-0.095-1.125-0.157-1.876-1.116-9.976-2.231-19.951-3.345-29.925-3.112-0.216-4.667-0.347-7.779-0.664,2.563,19.281,5.13,38.56,7.702,57.84,2.614,0.18,3.92,0.253,6.535,0.366,1.298-8.979,2.593-17.957,3.889-26.935,0.186-1.333,0.281-2,0.468-3.333,0.125,0.003,0.187,0.005,0.312,0.008,0.187,1.342,0.279,2.013,0.466,3.355,1.296,9.045,2.593,18.092,3.89,27.138,2.614,0.023,3.922,0.02,6.536-0.017,2.571-19.126,5.137-38.256,7.701-57.385-3.112,0.122-4.667,0.164-7.779,0.206-1.11,9.915-2.22,19.829-3.34,29.744z" fill="#010101"/>
<path d="M73.487,46.337c3.112,0.317,4.667,0.448,7.779,0.664,1.114,9.975,2.229,19.949,3.345,29.925,0.062,0.751,0.094,1.126,0.157,1.876,0.249,0.015,0.372,0.021,0.622,0.033,0.094-0.742,0.141-1.113,0.234-1.855,1.193-9.854,2.387-19.705,3.579-29.559,0,0,5.989,0.155,6.068,0.157,1.192,9.916,2.385,19.832,3.578,29.747,0.093,0.747,0.14,1.121,0.233,1.867h0.624c0.063-0.747,0.094-1.122,0.156-1.868,1.116-9.915,2.231-19.829,3.345-29.743,3.112-0.042,4.667-0.084,7.779-0.206-2.564,19.128-5.13,38.258-7.701,57.385-1.528,0.021-2.609,0.031-3.767,0.031-0.822,0-1.684-0.004-2.769-0.015-1.297-9.046-2.593-18.093-3.89-27.138-0.187-1.342-0.279-2.013-0.466-3.355-0.125-0.003-0.187-0.005-0.312-0.008-0.187,1.334-0.282,2.001-0.468,3.333-1.295,8.978-2.591,17.956-3.889,26.935-2.615-0.113-3.921-0.187-6.535-0.366-2.577-19.283-5.144-38.562-7.707-57.843m-0.901-0.873l0.129,0.976c2.563,19.281,5.13,38.561,7.702,57.839l0.083,0.63,0.634,0.044c2.624,0.181,3.911,0.254,6.555,0.366l0.702,0.031,0.101-0.696c1.248-8.632,2.494-17.262,3.739-25.894l1.8,12.557,1.945,13.569,0.094,0.662,0.668,0.005c1.089,0.011,1.952,0.016,2.777,0.016,1.091,0,2.114-0.007,3.777-0.031l0.671-0.007,0.089-0.666c2.571-19.128,5.137-38.257,7.702-57.386l0.123-0.917-0.925,0.036c-3.137,0.123-4.661,0.163-7.759,0.205l-0.686,0.009-0.076,0.682-3.053,27.144-0.034,0.309c-1.101-9.154-2.203-18.307-3.303-27.461l-0.08-0.672-0.677-0.013c-0.117-0.002-6.062-0.157-6.062-0.157l-0.708-0.019-0.085,0.703c-1.098,9.083-2.198,18.165-3.298,27.247l-0.085-0.764c-1.002-8.966-2.005-17.931-3.006-26.898l-0.072-0.645-0.648-0.044c-3.178-0.22-4.7-0.35-7.753-0.661l-0.96-0.084z" fill="#C9C9AE"/>
<path d="M134.24,54.317c0-3.454-0.001-5.181-0.001-8.636-7.686,0.797-11.53,1.117-19.216,1.512,0,19.061-0.001,38.12,0,57.18,7.686-0.395,11.529-0.713,19.216-1.51v-8.638c-4.325,0.45-6.489,0.645-10.813,0.973v-11.786-3.926c3.113-0.236,4.668-0.371,7.781-0.669v-9.181c-3.113,0.3-4.668,0.434-7.78,0.67v-15.016c4.33-0.323,6.49-0.521,10.81-0.97z" fill="#010101"/>
<path d="M134.24,45.681c0,3.455,0.001,5.182,0.001,8.636-4.326,0.449-6.489,0.647-10.814,0.975v15.016c3.112-0.236,4.667-0.37,7.78-0.67v9.181c-3.113,0.298-4.668,0.433-7.781,0.669v3.926,11.786c4.325-0.328,6.489-0.522,10.813-0.973v8.638c-7.687,0.797-11.53,1.115-19.216,1.51-0.001-19.06,0-38.119,0-57.18,7.69-0.392,11.54-0.711,19.22-1.509m0.78-0.863l-0.858,0.09c-7.476,0.776-11.294,1.103-19.175,1.508l-0.738,0.039v19.799c-0.001,12.705-0.001,25.413,0,38.119v0.819l0.818-0.042c7.928-0.408,11.762-0.736,19.256-1.515l0.698-0.072v-10.199l-0.858,0.087c-4.089,0.425-6.207,0.62-9.955,0.908v-10.953-1.964-1.24c2.643-0.204,4.171-0.337,7.078-0.617l0.703-0.066v-10.746l-0.853,0.082c-2.813,0.271-4.329,0.404-6.928,0.604v-13.454c3.771-0.289,5.904-0.484,10.117-0.92l0.698-0.072v-0.702-4.318-4.319-0.863z" fill="#C9C9AE"/>
<path d="M156.42,69.844c4.046-4.105,5.101-7.453,5.212-12.628,0.21-9.699-6.042-14.261-15.327-12.951-3.152,0.445-7.39,0.907-7.39,0.907v57.179c4.139-0.473,6.208-0.736,10.346-1.299,9.03-1.378,13.132-9.821,12.993-18.104-0.19-11.165-5.83-13.102-5.83-13.102zm-9.11,23.144v-17.581c1.556-0.206,6.223-1.485,6.223,7.927,0.01,9.415-4.66,9.449-6.22,9.654zm0-25.283c0-6.098-0.001-9.149-0.001-15.249,1.556-0.207,6.225-1.095,6.225,6.761,0,7.859-4.67,8.281-6.23,8.488z" fill="#010101"/>
<path d="M149.31,44.045c7.596,0,12.503,4.562,12.316,13.171-0.112,5.175-1.167,8.522-5.212,12.628,0,0,5.647,1.937,5.835,13.104,0.139,8.284-3.963,16.727-12.993,18.104-4.139,0.562-6.207,0.826-10.346,1.299v-57.179s4.238-0.462,7.39-0.907c1.03-0.146,2.04-0.219,3-0.219m-2,23.66c1.556-0.207,6.223-0.628,6.223-8.487,0-5.994-2.716-6.897-4.695-6.897-0.616,0-1.159,0.088-1.529,0.136v15.248m0,25.283c1.556-0.205,6.223-0.239,6.223-9.654,0-7.041-2.612-8.098-4.579-8.098-0.662,0-1.252,0.121-1.644,0.171v17.581m2-49.72c-0.998,0-2.047,0.076-3.119,0.228-3.103,0.437-7.324,0.898-7.366,0.903l-0.694,0.075v58.75l0.867-0.098c4.075-0.469,6.109-0.726,10.363-1.305,9.639-1.47,13.806-10.546,13.666-18.888-0.148-8.778-3.583-12.143-5.345-13.295,3.794-4.146,4.622-7.738,4.723-12.406,0.095-4.377-1.111-7.974-3.487-10.402-2.27-2.329-5.6-3.561-9.6-3.561zm-1.22,9.873c0.231-0.024,0.484-0.043,0.751-0.043,1.086,0,1.912,0.313,2.526,0.959,0.923,0.973,1.392,2.708,1.392,5.161,0,6.047-2.846,7.236-4.667,7.584l-0.001-6.721v-6.94zm0,22.939c0.266-0.036,0.561-0.066,0.866-0.066,0.939,0,3.8,0,3.8,7.32,0,7.36-2.839,8.476-4.667,8.771v-16.025z" fill="#C9C9AE"/>
<path d="M218.26,65.037c0.345-8.348-4.933-16.38-14.314-13.714-3.361,0.651-5.042,0.976-8.403,1.62v57.178c3.361-0.643,5.041-0.967,8.402-1.619,0.002-8.038,0-16.078,0-24.116,0.903-0.174,1.353-0.264,2.255-0.438,1.454,7.756,2.904,15.514,4.357,23.27,3.361-0.652,5.042-0.979,8.403-1.628-1.79-8.885-3.58-17.771-5.368-26.656,3.19-2.799,4.44-8.458,4.67-13.897zm-14.32,11.569v-16.961c2.334-0.452,6.222-0.898,6.222,7.271s-3.88,9.238-6.22,9.69z" fill="#010101"/>
<path d="M207.47,50.802c7.161,0,11.086,6.998,10.788,14.234-0.225,5.439-1.479,11.099-4.667,13.896,1.789,8.885,3.578,17.771,5.368,26.656-3.36,0.649-5.042,0.976-8.403,1.628-1.453-7.756-2.903-15.514-4.357-23.27-0.902,0.174-1.353,0.264-2.255,0.438,0,8.039,0.002,16.078,0,24.116-3.361,0.652-5.041,0.977-8.402,1.619v-57.178c3.361-0.644,5.042-0.968,8.403-1.62,1.25-0.355,2.43-0.52,3.53-0.52m-3.53,25.804c2.334-0.452,6.222-1.521,6.222-9.69,0-6.302-2.314-7.477-4.443-7.477-0.63,0-1.246,0.103-1.779,0.207v16.96m3.53-26.583c-1.188,0-2.435,0.183-3.707,0.541-3.338,0.647-5.019,0.972-8.368,1.614l-0.631,0.121v58.762l0.923-0.177c3.362-0.642,5.042-0.968,8.404-1.62l0.629-0.122v-0.64c0.002-5.36,0.002-10.72,0.001-16.08v-7.399l0.856-0.164,2.255,12.038,1.958,10.463,0.145,0.77,0.769-0.15,0.606-0.117c2.969-0.576,4.643-0.903,7.795-1.511l0.77-0.148-0.154-0.769-3.249-16.127-2.034-10.101c3.629-3.536,4.438-10.332,4.596-14.14,0.19-4.611-1.29-9.026-3.958-11.808-2.04-2.11-4.66-3.231-7.61-3.231zm-2.75,10.276c0.327-0.048,0.662-0.082,1.001-0.082,1.069,0,1.833,0.342,2.407,1.076,0.835,1.07,1.258,2.962,1.258,5.623,0,6.72-2.672,8.2-4.667,8.725v-15.342z" fill="#C9C9AE"/>
<path d="M232.03,78.754c3.111-0.578,4.666-0.864,7.779-1.422v-9.182c-3.113,0.559-4.668,0.846-7.779,1.425v-15.015c4.324-0.806,6.487-1.202,10.812-1.965v-8.634c-7.687,1.357-11.531,2.082-19.216,3.551,0,19.06-0.003,38.12,0,57.18,7.685-1.469,11.529-2.194,19.216-3.552,0-3.454,0.002-5.183,0.002-8.637-4.324,0.764-6.49,1.16-10.814,1.966v-15.715z" fill="#010101"/>
<path d="M242.84,43.961v8.634c-4.325,0.763-6.488,1.159-10.812,1.965v15.015c3.111-0.579,4.666-0.866,7.779-1.425v9.182c-3.113,0.559-4.668,0.844-7.779,1.422v15.716c4.324-0.807,6.49-1.202,10.814-1.966,0,3.455-0.002,5.183-0.002,8.637-7.687,1.357-11.531,2.083-19.216,3.552-0.003-19.06,0-38.12,0-57.18,7.69-1.467,11.53-2.192,19.22-3.549m0.78-0.927l-0.914,0.162c-7.625,1.346-11.522,2.08-19.229,3.552l-0.631,0.122v19.703c0,12.708-0.002,25.415,0,38.12v0.94l0.924-0.177c7.938-1.517,11.649-2.216,19.205-3.55l0.645-0.114v-4.968l0.001-4.32v-0.925l-0.913,0.16c-3.998,0.706-6.157,1.099-9.902,1.795v-14.131c2.623-0.489,4.17-0.773,7.139-1.306l0.641-0.115v-10.761l-0.915,0.164c-2.769,0.498-4.313,0.781-6.864,1.255v-13.432c3.994-0.742,6.161-1.139,10.17-1.845l0.645-0.113v-10.215h-0.02z" fill="#C9C9AE"/>
<path d="M265.01,67.364c4.045-4.086,5.104-7.376,5.211-12.556,0.203-9.656-5.975-14.484-15.326-12.889-3.156,0.538-7.389,1.23-7.389,1.23v57.18c4.137-0.708,6.207-1.052,10.346-1.7,8.969-1.479,13.137-9.767,12.992-18.075-0.19-11.162-5.83-13.191-5.83-13.191zm-9.1,23.249v-17.582c1.555-0.249,6.223-1.586,6.223,7.825,0,9.416-4.67,9.51-6.22,9.757zm0-25.283v-15.248c1.555-0.249,6.223-1.198,6.223,6.658,0,7.859-4.67,8.341-6.22,8.59z" fill="#010101"/>
<path d="M258.28,41.619c7.43,0,12.125,4.752,11.947,13.189-0.107,5.179-1.166,8.469-5.211,12.556,0,0,5.643,2.029,5.834,13.19,0.145,8.308-4.023,16.595-12.992,18.075-4.139,0.648-6.209,0.992-10.346,1.7v-57.18s4.232-0.692,7.389-1.23c1.18-0.202,2.3-0.301,3.38-0.301m-2.37,23.711c1.555-0.249,6.223-0.73,6.223-8.589,0-5.881-2.617-6.828-4.584-6.828-0.66,0-1.248,0.107-1.639,0.17v15.247m0,25.283c1.555-0.248,6.223-0.341,6.223-9.756,0-6.931-2.529-8.032-4.486-8.032-0.699,0-1.326,0.141-1.736,0.207,0.01,7.033,0.01,10.549,0.01,17.581m2.37-49.772c-1.119,0-2.299,0.105-3.51,0.311-3.117,0.531-7.343,1.223-7.385,1.229l-0.652,0.107v58.763l0.909-0.156c4.087-0.698,6.151-1.041,10.337-1.698,9.629-1.586,13.791-10.613,13.65-18.856-0.152-8.79-3.596-12.2-5.35-13.37,3.82-4.142,4.627-7.594,4.725-12.345,0.094-4.426-1.127-8.062-3.527-10.514-2.22-2.266-5.4-3.466-9.19-3.466zm-1.59,9.909c0.262-0.034,0.555-0.061,0.859-0.061,1.057,0,1.861,0.314,2.459,0.96,0.895,0.965,1.346,2.678,1.346,5.09,0,6.031-2.85,7.276-4.664,7.665v-13.654h-0.01zm0,22.938c0.291-0.046,0.617-0.084,0.957-0.084,1.025,0,1.777,0.354,2.359,1.112,0.896,1.166,1.348,3.232,1.348,6.141,0,7.346-2.842,8.518-4.664,8.852v-16.021h-0.01z" fill="#C9C9AE"/>
<path d="M275.82,96.096c7.686-0.952,11.529-1.357,19.217-1.949,0-3.455-0.002-5.182-0.002-8.635-4.324,0.332-6.488,0.533-10.812,0.984v-15.713c3.111-0.326,4.67-0.474,7.781-0.739v-9.18c-3.111,0.264-4.67,0.413-7.781,0.738v-15.015c4.324-0.453,6.488-0.651,10.814-0.984v-8.635c-7.688,0.592-11.531,0.995-19.217,1.946v57.182z" fill="#010101"/>
<path d="M295.04,36.967v8.635c-4.326,0.333-6.49,0.531-10.814,0.984v15.015c3.111-0.325,4.67-0.474,7.781-0.738v9.18c-3.111,0.265-4.67,0.414-7.781,0.739v15.713c4.324-0.451,6.488-0.652,10.812-0.984,0,3.453,0.002,5.181,0.002,8.635-7.688,0.592-11.531,0.997-19.217,1.949v-57.182c7.69-0.951,11.53-1.354,19.22-1.946m0.78-0.84l-0.84,0.065c-7.896,0.607-11.732,1.019-19.252,1.949l-0.684,0.084v58.749l0.873-0.107c7.527-0.931,11.355-1.343,19.182-1.944l0.721-0.055v-0.722l-0.002-4.319-0.002-4.316v-0.841l-0.836,0.065c-3.955,0.304-6.068,0.494-9.977,0.899v-14.151c2.672-0.277,4.193-0.419,7.07-0.665l0.713-0.061v-10.742l-0.844,0.071c-2.787,0.237-4.307,0.378-6.939,0.65v-13.448c3.951-0.41,6.064-0.6,10.096-0.91l0.721-0.055v-10.196z" fill="#C9C9AE"/>
<path d="M308.1,36.209c-3.361,0.129-5.041,0.216-8.402,0.43v57.181c7.812-0.498,11.717-0.646,19.527-0.655v-7.778c-4.449,0.005-6.674,0.053-11.125,0.222v-49.4z" fill="#010101"/>
<path d="M308.1,36.209v49.399c4.451-0.169,6.676-0.217,11.125-0.222v7.778c-7.811,0.009-11.715,0.157-19.527,0.655v-57.181c3.37-0.213,5.05-0.299,8.41-0.429m0.78-0.808l-0.809,0.03c-3.359,0.129-5.014,0.214-8.42,0.432l-0.729,0.047v58.739l0.826-0.054c7.578-0.481,11.455-0.645,19.479-0.652l0.779-0.002v-9.333h-0.781c-4.133,0.005-6.316,0.044-10.346,0.192v-49.399z" fill="#C9C9AE"/>
<path d="M333.23,43.41c2.752,0.091,3.344,4.63,3.344,8.441,3.299-0.098,4.949-0.121,8.248-0.103,0.232-7.458-3.02-15.83-11.746-16.048-7.891-0.199-10.971,6.832-10.971,13.056,0,6.146,3.797,12.023,7.703,17.995,3.199,4.894,6.766,9.761,6.766,13.574,0,3.578-0.932,6.229-3.422,6.103-3.5-0.178-3.967-5.152-3.967-9.897-3.299,0.194-4.947,0.317-8.246,0.613-0.479,8.036,2.848,16.802,12.213,16.984,8.9,0.173,11.67-5.892,11.67-13.517,0-6.146-3.953-12.288-7.857-18.31-3.209-4.951-6.613-9.453-6.613-13.342,0.01-3.269,0.76-5.621,2.89-5.549z" fill="#010101"/>
<path d="M332.75,35.697c0.107,0,0.217,0.001,0.326,0.004,8.727,0.218,11.979,8.59,11.746,16.048-0.662-0.003-1.258-0.006-1.812-0.006-2.213,0-3.797,0.03-6.436,0.108,0-3.812-0.592-8.35-3.344-8.441-0.031-0.001-0.062-0.001-0.094-0.001-2.066,0-2.785,2.331-2.785,5.55,0,3.89,3.404,8.391,6.613,13.342,3.904,6.022,7.857,12.165,7.857,18.31,0,7.518-2.691,13.52-11.299,13.52-0.123,0-0.248,0-0.371-0.003-9.365-0.183-12.691-8.948-12.213-16.984,3.299-0.295,4.947-0.418,8.246-0.613,0,4.745,0.467,9.719,3.967,9.897,0.057,0.003,0.113,0.005,0.168,0.005,2.363,0,3.254-2.612,3.254-6.107,0-3.812-3.566-8.68-6.766-13.574-3.906-5.972-7.703-11.85-7.703-17.995-0.01-6.138,2.98-13.061,10.63-13.06m0-0.778c-3.738-0.001-6.793,1.579-8.832,4.567-1.67,2.445-2.588,5.737-2.588,9.27,0,6.449,3.979,12.536,7.826,18.421,0.381,0.581,0.766,1.161,1.15,1.739,2.699,4.072,5.49,8.283,5.49,11.409,0,2.431-0.428,5.329-2.477,5.329-0.041,0-0.084,0-0.129-0.003-2.232-0.115-3.229-2.927-3.229-9.12v-0.825l-0.824,0.048c-3.283,0.193-4.906,0.313-8.27,0.615l-0.666,0.059-0.041,0.669c-0.338,5.708,1.164,10.819,4.125,14.022,2.254,2.441,5.232,3.715,8.852,3.786,0.129,0.001,0.258,0.003,0.385,0.003,7.902,0,12.076-4.943,12.076-14.298,0-6.421-4.057-12.68-7.982-18.733-0.453-0.7-0.91-1.391-1.361-2.071-2.637-3.981-5.125-7.74-5.125-10.848,0-3.167,0.674-4.772,2.006-4.772h0.068c1.646,0.055,2.592,2.849,2.592,7.665v0.802l0.801-0.024c2.76-0.082,4.316-0.107,6.412-0.107,0.555,0,1.146,0.001,1.809,0.005l0.758,0.004,0.023-0.757c0.17-5.416-1.379-10.264-4.252-13.3-2.146-2.273-4.924-3.467-8.254-3.55-0.13-0.005-0.24-0.005-0.36-0.005z" fill="#C9C9AE"/>
</svg>